<svg width="120" height="96" viewBox="0 0 120 96" fill="none" xmlns="http://www.w3.org/2000/svg">
<circle cx="12" cy="12" r="8" fill="#D8E9E4"/>
<circle cx="36" cy="12" r="8" fill="#D8E9E4"/>
<circle cx="60" cy="12" r="8" fill="#D8E9E4"/>
<circle cx="84" cy="12" r="8" fill="#D8E9E4"/>
<circle cx="108" cy="12" r="8" fill="#D8E9E4"/>
<circle cx="12" cy="36" r="8" fill="#D8E9E4"/>
<circle cx="36" cy="36" r="8" fill="#D8E9E4"/>
<circle cx="60" cy="36" r="8" fill="#D8E9E4"/>
<circle cx="84" cy="36" r="8" fill="#D8E9E4"/>
<circle cx="108" cy="36" r="8" fill="#D8E9E4"/>
<circle cx="12" cy="60" r="8" fill="#D8E9E4"/>
<circle cx="36" cy="60" r="8" fill="#D8E9E4"/>
<circle cx="60" cy="60" r="8" fill="#D8E9E4"/>
<circle cx="84" cy="60" r="8" fill="#D8E9E4"/>
<circle cx="108" cy="60" r="8" fill="#D8E9E4"/>
<circle cx="12" cy="84" r="8" fill="#D8E9E4"/>
<circle cx="36" cy="84" r="8" fill="#D8E9E4"/>
<circle cx="60" cy="84" r="8" fill="#D8E9E4"/>
<circle cx="84" cy="84" r="8" fill="#D8E9E4"/>
<circle cx="108" cy="84" r="8" fill="#D8E9E4"/>
</svg>
