<svg width="429" height="2420" viewBox="0 0 429 2420" fill="none" xmlns="http://www.w3.org/2000/svg">
<rect x="285.828" y="2210.1" width="49.8641" height="49.8641" transform="rotate(-45 285.828 2210.1)" stroke="#FEE9FF" stroke-width="4"/>
<circle cx="113.626" cy="2377.51" r="37.8373" transform="rotate(93.5036 113.626 2377.51)" stroke="#D8E9E4" stroke-width="4"/>
<circle cx="43.1083" cy="2235.12" r="21.7042" transform="rotate(93.5036 43.1083 2235.12)" stroke="#FEE9FF" stroke-width="4"/>
<path d="M323.118 1192.58L282.418 1094.77L387.471 1108.43L323.118 1192.58Z" stroke="#D8E9E4" stroke-width="4"/>
<path d="M259.02 546.275L248.788 521.687L275.198 525.12L259.02 546.275Z" stroke="#D8E9E4" stroke-width="4"/>
<path d="M239.179 510.409L228.948 485.821L255.357 489.254L239.179 510.409Z" stroke="#D8E9E4" stroke-width="4"/>
<circle cx="312" cy="1830" r="8" fill="#D8E9E4"/>
<circle cx="336" cy="1830" r="8" fill="#D8E9E4"/>
<circle cx="360" cy="1830" r="8" fill="#D8E9E4"/>
<circle cx="384" cy="1830" r="8" fill="#D8E9E4"/>
<circle cx="408" cy="1830" r="8" fill="#D8E9E4"/>
<circle cx="312" cy="1854" r="8" fill="#D8E9E4"/>
<circle cx="336" cy="1854" r="8" fill="#D8E9E4"/>
<circle cx="360" cy="1854" r="8" fill="#D8E9E4"/>
<circle cx="384" cy="1854" r="8" fill="#D8E9E4"/>
<circle cx="408" cy="1854" r="8" fill="#D8E9E4"/>
<circle cx="312" cy="1878" r="8" fill="#D8E9E4"/>
<circle cx="336" cy="1878" r="8" fill="#D8E9E4"/>
<circle cx="360" cy="1878" r="8" fill="#D8E9E4"/>
<circle cx="384" cy="1878" r="8" fill="#D8E9E4"/>
<circle cx="408" cy="1878" r="8" fill="#D8E9E4"/>
<circle cx="312" cy="1902" r="8" fill="#D8E9E4"/>
<circle cx="336" cy="1902" r="8" fill="#D8E9E4"/>
<circle cx="360" cy="1902" r="8" fill="#D8E9E4"/>
<circle cx="384" cy="1902" r="8" fill="#D8E9E4"/>
<circle cx="408" cy="1902" r="8" fill="#D8E9E4"/>
<circle cx="30" cy="1352.01" r="8" fill="#FEE9FF"/>
<circle cx="54" cy="1352.01" r="8" fill="#FEE9FF"/>
<circle cx="78" cy="1352.01" r="8" fill="#FEE9FF"/>
<circle cx="102" cy="1352.01" r="8" fill="#FEE9FF"/>
<circle cx="126" cy="1352.01" r="8" fill="#FEE9FF"/>
<circle cx="30" cy="1376.01" r="8" fill="#FEE9FF"/>
<circle cx="54" cy="1376.01" r="8" fill="#FEE9FF"/>
<circle cx="78" cy="1376.01" r="8" fill="#FEE9FF"/>
<circle cx="102" cy="1376.01" r="8" fill="#FEE9FF"/>
<circle cx="126" cy="1376.01" r="8" fill="#FEE9FF"/>
<circle cx="30" cy="1400.01" r="8" fill="#FEE9FF"/>
<circle cx="54" cy="1400.01" r="8" fill="#FEE9FF"/>
<circle cx="78" cy="1400.01" r="8" fill="#FEE9FF"/>
<circle cx="102" cy="1400.01" r="8" fill="#FEE9FF"/>
<circle cx="126" cy="1400.01" r="8" fill="#FEE9FF"/>
<circle cx="30" cy="1424.01" r="8" fill="#FEE9FF"/>
<circle cx="54" cy="1424.01" r="8" fill="#FEE9FF"/>
<circle cx="78" cy="1424.01" r="8" fill="#FEE9FF"/>
<circle cx="102" cy="1424.01" r="8" fill="#FEE9FF"/>
<circle cx="126" cy="1424.01" r="8" fill="#FEE9FF"/>
<path d="M117.898 850.659C166.89 837.532 217.222 866.508 230.317 915.379C243.412 964.25 214.311 1014.51 165.319 1027.64C116.326 1040.76 65.9948 1011.79 52.8998 962.918C39.8048 914.047 68.9054 863.787 117.898 850.659Z" fill="#D8E9E4"/>
<path d="M211.694 708.769C260.687 695.642 311.018 724.618 324.113 773.489C337.208 822.36 308.108 872.62 259.116 885.747C210.123 898.875 159.792 869.899 146.697 821.028C133.602 772.157 162.702 721.897 211.694 708.769Z" fill="#D8E9E4"/>
<path d="M95.5342 767.887C126.737 759.526 158.793 777.98 167.133 809.106C175.473 840.232 156.939 872.242 125.736 880.603C94.5335 888.964 62.4776 870.509 54.1375 839.383C45.7974 808.258 64.3313 776.247 95.5342 767.887Z" fill="#D8E9E4"/>
<path fill-rule="evenodd" clip-rule="evenodd" d="M127.662 880.051C156.94 871.124 160.647 868.972 206.205 884.164L172.939 730.179C137.719 762.842 133.455 762.414 103.105 766.384L127.662 880.051Z" fill="#D8E9E4"/>
<path fill-rule="evenodd" clip-rule="evenodd" d="M54.6113 841.052C62.9104 868.701 64.9035 871.479 52.9959 915.242L206.201 873.946C173.911 842.096 174.238 838.693 167.517 810.618L54.6113 841.052Z" fill="#D8E9E4"/>
<path fill-rule="evenodd" clip-rule="evenodd" d="M145.71 777.759C134.558 828.564 130.718 834.373 88.2935 864.615L231.303 958.648C242.455 907.843 246.295 902.034 288.72 871.791L145.71 777.759Z" fill="#D8E9E4"/>
<circle cx="363" cy="1616" r="31" stroke="#FEE9FF" stroke-width="4"/>
<path d="M301.211 103.201C301.211 160.197 255.049 206.401 198.105 206.401C141.162 206.401 95 160.197 95 103.201C95 46.2046 141.162 0 198.105 0C255.049 0 301.211 46.2046 301.211 103.201Z" fill="#FEE9FF"/>
<path d="M428.14 246.279C428.14 303.275 381.979 349.48 325.035 349.48C268.092 349.48 221.93 303.275 221.93 246.279C221.93 189.283 268.092 143.078 325.035 143.078C381.979 143.078 428.14 189.283 428.14 246.279Z" fill="#FEE9FF"/>
<path d="M397.709 103C397.709 139.301 368.309 168.728 332.042 168.728C295.775 168.728 266.375 139.301 266.375 103C266.375 66.6999 295.775 37.2725 332.042 37.2725C368.309 37.2725 397.709 66.6999 397.709 103Z" fill="#FEE9FF"/>
<path fill-rule="evenodd" clip-rule="evenodd" d="M266.414 105.251C267.59 139.627 268.85 144.277 239.064 189.309L416.155 197.986C390.905 150.257 392.612 145.753 397.138 111.656L266.414 105.251Z" fill="#FEE9FF"/>
<path fill-rule="evenodd" clip-rule="evenodd" d="M330.09 37.3015C297.615 38.2682 294.014 39.6235 249.907 13.9703L250.173 192.276C294.204 166.491 297.808 167.835 330.287 168.705L330.09 37.3015Z" fill="#FEE9FF"/>
<path fill-rule="evenodd" clip-rule="evenodd" d="M372.361 154.592C320.378 127.711 315.182 121.853 294.662 67.0082L150.78 194.888C202.762 221.769 207.959 227.627 228.478 282.472L372.361 154.592Z" fill="#FEE9FF"/>
</svg>
