<svg width="1536" height="2199" viewBox="0 0 1536 2199" fill="none" xmlns="http://www.w3.org/2000/svg">
<circle cx="174.077" cy="1362.08" r="174.077" fill="#D8E9E4"/>
<circle cx="290.396" cy="1547.38" r="147.604" fill="#D8E9E4"/>
<circle cx="107.495" cy="1547.38" r="107.495" fill="#D8E9E4"/>
<path fill-rule="evenodd" clip-rule="evenodd" d="M99.3202 1654.57C160.185 1659.21 161.735 1658.11 240.651 1686.35V1408.42C161.735 1436.66 160.185 1435.56 99.3202 1440.2V1654.57Z" fill="#D8E9E4"/>
<path fill-rule="evenodd" clip-rule="evenodd" d="M199.277 1603.34C229.252 1554.17 228.37 1551.95 295.297 1487.01L1.06346 1381.29C11.3563 1473.97 9.26051 1475.13 1.08794 1532.13L199.277 1603.34Z" fill="#D8E9E4"/>
<path fill-rule="evenodd" clip-rule="evenodd" d="M414.564 1467.58C370.718 1399.36 369.336 1398.46 339.416 1307.62L53.1581 1487.3C121.958 1553.74 122.171 1555.37 164.547 1624.52L414.564 1467.58Z" fill="#D8E9E4"/>
<circle cx="235" cy="1859.5" r="8" transform="rotate(-180 235 1859.5)" fill="#FEE9FF"/>
<circle cx="211" cy="1859.5" r="8" transform="rotate(-180 211 1859.5)" fill="#FEE9FF"/>
<circle cx="187" cy="1859.5" r="8" transform="rotate(-180 187 1859.5)" fill="#FEE9FF"/>
<circle cx="163" cy="1859.5" r="8" transform="rotate(-180 163 1859.5)" fill="#FEE9FF"/>
<circle cx="139" cy="1859.5" r="8" transform="rotate(-180 139 1859.5)" fill="#FEE9FF"/>
<circle cx="235" cy="1835.5" r="8" transform="rotate(-180 235 1835.5)" fill="#FEE9FF"/>
<circle cx="211" cy="1835.5" r="8" transform="rotate(-180 211 1835.5)" fill="#FEE9FF"/>
<circle cx="187" cy="1835.5" r="8" transform="rotate(-180 187 1835.5)" fill="#FEE9FF"/>
<circle cx="163" cy="1835.5" r="8" transform="rotate(-180 163 1835.5)" fill="#FEE9FF"/>
<circle cx="139" cy="1835.5" r="8" transform="rotate(-180 139 1835.5)" fill="#FEE9FF"/>
<circle cx="235" cy="1811.5" r="8" transform="rotate(-180 235 1811.5)" fill="#FEE9FF"/>
<circle cx="211" cy="1811.5" r="8" transform="rotate(-180 211 1811.5)" fill="#FEE9FF"/>
<circle cx="187" cy="1811.5" r="8" transform="rotate(-180 187 1811.5)" fill="#FEE9FF"/>
<circle cx="163" cy="1811.5" r="8" transform="rotate(-180 163 1811.5)" fill="#FEE9FF"/>
<circle cx="139" cy="1811.5" r="8" transform="rotate(-180 139 1811.5)" fill="#FEE9FF"/>
<circle cx="235" cy="1787.5" r="8" transform="rotate(-180 235 1787.5)" fill="#FEE9FF"/>
<circle cx="211" cy="1787.5" r="8" transform="rotate(-180 211 1787.5)" fill="#FEE9FF"/>
<circle cx="187" cy="1787.5" r="8" transform="rotate(-180 187 1787.5)" fill="#FEE9FF"/>
<circle cx="163" cy="1787.5" r="8" transform="rotate(-180 163 1787.5)" fill="#FEE9FF"/>
<circle cx="139" cy="1787.5" r="8" transform="rotate(-180 139 1787.5)" fill="#FEE9FF"/>
<circle cx="1116.5" cy="1640.5" r="8" transform="rotate(-180 1116.5 1640.5)" fill="#D8E9E4"/>
<circle cx="1092.5" cy="1640.5" r="8" transform="rotate(-180 1092.5 1640.5)" fill="#D8E9E4"/>
<circle cx="1068.5" cy="1640.5" r="8" transform="rotate(-180 1068.5 1640.5)" fill="#D8E9E4"/>
<circle cx="1044.5" cy="1640.5" r="8" transform="rotate(-180 1044.5 1640.5)" fill="#D8E9E4"/>
<circle cx="1020.5" cy="1640.5" r="8" transform="rotate(-180 1020.5 1640.5)" fill="#D8E9E4"/>
<circle cx="1116.5" cy="1616.5" r="8" transform="rotate(-180 1116.5 1616.5)" fill="#D8E9E4"/>
<circle cx="1092.5" cy="1616.5" r="8" transform="rotate(-180 1092.5 1616.5)" fill="#D8E9E4"/>
<circle cx="1068.5" cy="1616.5" r="8" transform="rotate(-180 1068.5 1616.5)" fill="#D8E9E4"/>
<circle cx="1044.5" cy="1616.5" r="8" transform="rotate(-180 1044.5 1616.5)" fill="#D8E9E4"/>
<circle cx="1020.5" cy="1616.5" r="8" transform="rotate(-180 1020.5 1616.5)" fill="#D8E9E4"/>
<circle cx="1116.5" cy="1592.5" r="8" transform="rotate(-180 1116.5 1592.5)" fill="#D8E9E4"/>
<circle cx="1092.5" cy="1592.5" r="8" transform="rotate(-180 1092.5 1592.5)" fill="#D8E9E4"/>
<circle cx="1068.5" cy="1592.5" r="8" transform="rotate(-180 1068.5 1592.5)" fill="#D8E9E4"/>
<circle cx="1044.5" cy="1592.5" r="8" transform="rotate(-180 1044.5 1592.5)" fill="#D8E9E4"/>
<circle cx="1020.5" cy="1592.5" r="8" transform="rotate(-180 1020.5 1592.5)" fill="#D8E9E4"/>
<circle cx="1116.5" cy="1568.5" r="8" transform="rotate(-180 1116.5 1568.5)" fill="#D8E9E4"/>
<circle cx="1092.5" cy="1568.5" r="8" transform="rotate(-180 1092.5 1568.5)" fill="#D8E9E4"/>
<circle cx="1068.5" cy="1568.5" r="8" transform="rotate(-180 1068.5 1568.5)" fill="#D8E9E4"/>
<circle cx="1044.5" cy="1568.5" r="8" transform="rotate(-180 1044.5 1568.5)" fill="#D8E9E4"/>
<circle cx="1020.5" cy="1568.5" r="8" transform="rotate(-180 1020.5 1568.5)" fill="#D8E9E4"/>
<circle cx="562" cy="1608" r="8" fill="#FEE9FF"/>
<circle cx="586" cy="1608" r="8" fill="#FEE9FF"/>
<circle cx="610" cy="1608" r="8" fill="#FEE9FF"/>
<circle cx="634" cy="1608" r="8" fill="#FEE9FF"/>
<circle cx="658" cy="1608" r="8" fill="#FEE9FF"/>
<circle cx="562" cy="1632" r="8" fill="#FEE9FF"/>
<circle cx="586" cy="1632" r="8" fill="#FEE9FF"/>
<circle cx="610" cy="1632" r="8" fill="#FEE9FF"/>
<circle cx="634" cy="1632" r="8" fill="#FEE9FF"/>
<circle cx="658" cy="1632" r="8" fill="#FEE9FF"/>
<circle cx="562" cy="1656" r="8" fill="#FEE9FF"/>
<circle cx="586" cy="1656" r="8" fill="#FEE9FF"/>
<circle cx="610" cy="1656" r="8" fill="#FEE9FF"/>
<circle cx="634" cy="1656" r="8" fill="#FEE9FF"/>
<circle cx="658" cy="1656" r="8" fill="#FEE9FF"/>
<circle cx="562" cy="1680" r="8" fill="#FEE9FF"/>
<circle cx="586" cy="1680" r="8" fill="#FEE9FF"/>
<circle cx="610" cy="1680" r="8" fill="#FEE9FF"/>
<circle cx="634" cy="1680" r="8" fill="#FEE9FF"/>
<circle cx="658" cy="1680" r="8" fill="#FEE9FF"/>
<rect x="23" y="551" width="49.8309" height="49.8309" stroke="#D8E9E4" stroke-width="4"/>
<rect x="75.5046" y="658.518" width="49.8309" height="49.8309" stroke="#D8E9E4" stroke-width="4"/>
<circle cx="355" cy="2149" r="48" stroke="#FEE9FF" stroke-width="4"/>
<circle cx="399" cy="2101" r="48" stroke="#D8E9E4" stroke-width="4"/>
<path d="M1112.19 1965.45L1162.76 1935.54L1163.38 1994.29L1112.19 1965.45Z" stroke="#D8E9E4" stroke-width="4"/>
<path d="M1237.16 1875.14L1268.22 1825.26L1295.88 1877.1L1237.16 1875.14Z" stroke="#FEE9FF" stroke-width="4"/>
<path d="M1095.4 2158.26L1058.03 2112.92L1115.98 2103.23L1095.4 2158.26Z" stroke="#FEE9FF" stroke-width="4"/>
<path d="M1246.81 837.762C1246.81 967.418 1141.64 1072.52 1011.91 1072.52C882.171 1072.52 777 967.418 777 837.762C777 708.107 882.171 603 1011.91 603C1141.64 603 1246.81 708.107 1246.81 837.762Z" fill="#FEE9FF"/>
<path d="M1536 1163.24C1536 1292.89 1430.83 1398 1301.09 1398C1171.36 1398 1066.19 1292.89 1066.19 1163.24C1066.19 1033.58 1171.36 928.476 1301.09 928.476C1430.83 928.476 1536 1033.58 1536 1163.24Z" fill="#FEE9FF"/>
<path d="M1466.67 837.306C1466.67 919.883 1399.69 986.825 1317.06 986.825C1234.43 986.825 1167.45 919.883 1167.45 837.306C1167.45 754.729 1234.43 687.788 1317.06 687.788C1399.69 687.788 1466.67 754.729 1466.67 837.306Z" fill="#FEE9FF"/>
<path fill-rule="evenodd" clip-rule="evenodd" d="M1167.53 842.425C1170.22 920.625 1173.08 931.202 1105.22 1033.64L1508.69 1053.38C1451.17 944.806 1455.06 934.56 1465.37 856.995L1167.53 842.425Z" fill="#FEE9FF"/>
<path fill-rule="evenodd" clip-rule="evenodd" d="M1312.61 687.854C1238.62 690.053 1230.42 693.136 1129.93 634.78L1130.53 1040.39C1230.85 981.735 1239.06 984.793 1313.06 986.771L1312.61 687.854Z" fill="#FEE9FF"/>
<path fill-rule="evenodd" clip-rule="evenodd" d="M1408.92 954.667C1290.48 893.517 1278.64 880.193 1231.89 755.431L904.083 1046.33C1022.52 1107.48 1034.36 1120.81 1081.11 1245.57L1408.92 954.667Z" fill="#FEE9FF"/>
<path d="M727.193 145.447L777.765 115.54L778.378 174.29L727.193 145.447Z" stroke="#D8E9E4" stroke-width="4"/>
<path d="M852.163 55.1358L883.22 5.26247L910.883 57.0953L852.163 55.1358Z" stroke="#FEE9FF" stroke-width="4"/>
<path d="M710.397 338.258L673.03 292.919L730.978 283.227L710.397 338.258Z" stroke="#FEE9FF" stroke-width="4"/>
</svg>
