<svg width="1501" height="1760" viewBox="0 0 1501 1760" fill="none" xmlns="http://www.w3.org/2000/svg">
<circle cx="174.077" cy="899.077" r="174.077" fill="#D8E9E4"/>
<circle cx="290.396" cy="1084.38" r="147.604" fill="#D8E9E4"/>
<circle cx="107.495" cy="1084.38" r="107.495" fill="#D8E9E4"/>
<path fill-rule="evenodd" clip-rule="evenodd" d="M99.3202 1191.57C160.185 1196.21 161.735 1195.11 240.651 1223.35V945.415C161.735 973.663 160.185 972.56 99.3202 977.201V1191.57Z" fill="#D8E9E4"/>
<path fill-rule="evenodd" clip-rule="evenodd" d="M199.277 1140.34C229.252 1091.17 228.37 1088.95 295.297 1024.01L1.06346 918.291C11.3563 1010.97 9.26051 1012.13 1.08794 1069.13L199.277 1140.34Z" fill="#D8E9E4"/>
<path fill-rule="evenodd" clip-rule="evenodd" d="M414.564 1004.58C370.718 936.359 369.336 935.455 339.416 844.617L53.1581 1024.3C121.958 1090.74 122.171 1092.37 164.547 1161.52L414.564 1004.58Z" fill="#D8E9E4"/>
<circle cx="204" cy="1464.5" r="8" transform="rotate(-180 204 1464.5)" fill="#FEE9FF"/>
<circle cx="180" cy="1464.5" r="8" transform="rotate(-180 180 1464.5)" fill="#FEE9FF"/>
<circle cx="156" cy="1464.5" r="8" transform="rotate(-180 156 1464.5)" fill="#FEE9FF"/>
<circle cx="132" cy="1464.5" r="8" transform="rotate(-180 132 1464.5)" fill="#FEE9FF"/>
<circle cx="108" cy="1464.5" r="8" transform="rotate(-180 108 1464.5)" fill="#FEE9FF"/>
<circle cx="204" cy="1440.5" r="8" transform="rotate(-180 204 1440.5)" fill="#FEE9FF"/>
<circle cx="180" cy="1440.5" r="8" transform="rotate(-180 180 1440.5)" fill="#FEE9FF"/>
<circle cx="156" cy="1440.5" r="8" transform="rotate(-180 156 1440.5)" fill="#FEE9FF"/>
<circle cx="132" cy="1440.5" r="8" transform="rotate(-180 132 1440.5)" fill="#FEE9FF"/>
<circle cx="108" cy="1440.5" r="8" transform="rotate(-180 108 1440.5)" fill="#FEE9FF"/>
<circle cx="204" cy="1416.5" r="8" transform="rotate(-180 204 1416.5)" fill="#FEE9FF"/>
<circle cx="180" cy="1416.5" r="8" transform="rotate(-180 180 1416.5)" fill="#FEE9FF"/>
<circle cx="156" cy="1416.5" r="8" transform="rotate(-180 156 1416.5)" fill="#FEE9FF"/>
<circle cx="132" cy="1416.5" r="8" transform="rotate(-180 132 1416.5)" fill="#FEE9FF"/>
<circle cx="108" cy="1416.5" r="8" transform="rotate(-180 108 1416.5)" fill="#FEE9FF"/>
<circle cx="204" cy="1392.5" r="8" transform="rotate(-180 204 1392.5)" fill="#FEE9FF"/>
<circle cx="180" cy="1392.5" r="8" transform="rotate(-180 180 1392.5)" fill="#FEE9FF"/>
<circle cx="156" cy="1392.5" r="8" transform="rotate(-180 156 1392.5)" fill="#FEE9FF"/>
<circle cx="132" cy="1392.5" r="8" transform="rotate(-180 132 1392.5)" fill="#FEE9FF"/>
<circle cx="108" cy="1392.5" r="8" transform="rotate(-180 108 1392.5)" fill="#FEE9FF"/>
<circle cx="1261.5" cy="1199.5" r="8" transform="rotate(-180 1261.5 1199.5)" fill="#D8E9E4"/>
<circle cx="1237.5" cy="1199.5" r="8" transform="rotate(-180 1237.5 1199.5)" fill="#D8E9E4"/>
<circle cx="1213.5" cy="1199.5" r="8" transform="rotate(-180 1213.5 1199.5)" fill="#D8E9E4"/>
<circle cx="1189.5" cy="1199.5" r="8" transform="rotate(-180 1189.5 1199.5)" fill="#D8E9E4"/>
<circle cx="1165.5" cy="1199.5" r="8" transform="rotate(-180 1165.5 1199.5)" fill="#D8E9E4"/>
<circle cx="1261.5" cy="1175.5" r="8" transform="rotate(-180 1261.5 1175.5)" fill="#D8E9E4"/>
<circle cx="1237.5" cy="1175.5" r="8" transform="rotate(-180 1237.5 1175.5)" fill="#D8E9E4"/>
<circle cx="1213.5" cy="1175.5" r="8" transform="rotate(-180 1213.5 1175.5)" fill="#D8E9E4"/>
<circle cx="1189.5" cy="1175.5" r="8" transform="rotate(-180 1189.5 1175.5)" fill="#D8E9E4"/>
<circle cx="1165.5" cy="1175.5" r="8" transform="rotate(-180 1165.5 1175.5)" fill="#D8E9E4"/>
<circle cx="1261.5" cy="1151.5" r="8" transform="rotate(-180 1261.5 1151.5)" fill="#D8E9E4"/>
<circle cx="1237.5" cy="1151.5" r="8" transform="rotate(-180 1237.5 1151.5)" fill="#D8E9E4"/>
<circle cx="1213.5" cy="1151.5" r="8" transform="rotate(-180 1213.5 1151.5)" fill="#D8E9E4"/>
<circle cx="1189.5" cy="1151.5" r="8" transform="rotate(-180 1189.5 1151.5)" fill="#D8E9E4"/>
<circle cx="1165.5" cy="1151.5" r="8" transform="rotate(-180 1165.5 1151.5)" fill="#D8E9E4"/>
<circle cx="1261.5" cy="1127.5" r="8" transform="rotate(-180 1261.5 1127.5)" fill="#D8E9E4"/>
<circle cx="1237.5" cy="1127.5" r="8" transform="rotate(-180 1237.5 1127.5)" fill="#D8E9E4"/>
<circle cx="1213.5" cy="1127.5" r="8" transform="rotate(-180 1213.5 1127.5)" fill="#D8E9E4"/>
<circle cx="1189.5" cy="1127.5" r="8" transform="rotate(-180 1189.5 1127.5)" fill="#D8E9E4"/>
<circle cx="1165.5" cy="1127.5" r="8" transform="rotate(-180 1165.5 1127.5)" fill="#D8E9E4"/>
<rect x="7" y="172" width="49.8309" height="49.8309" stroke="#D8E9E4" stroke-width="4"/>
<rect x="777" y="951" width="49.8309" height="49.8309" stroke="#FEE9FF" stroke-width="4"/>
<rect x="59.5046" y="279.518" width="49.8309" height="49.8309" stroke="#D8E9E4" stroke-width="4"/>
<rect x="829.505" y="1058.52" width="49.8309" height="49.8309" stroke="#FEE9FF" stroke-width="4"/>
<circle cx="475.5" cy="1718.5" r="39.5" stroke="#FEE9FF" stroke-width="4"/>
<circle cx="515.5" cy="547.5" r="39.5" stroke="#FEE9FF" stroke-width="4"/>
<circle cx="512.5" cy="1678.5" r="39.5" stroke="#D8E9E4" stroke-width="4"/>
<circle cx="552.5" cy="507.5" r="39.5" stroke="#D8E9E4" stroke-width="4"/>
<path d="M1211.81 234.762C1211.81 364.418 1106.64 469.524 976.907 469.524C847.171 469.524 742 364.418 742 234.762C742 105.107 847.171 0 976.907 0C1106.64 0 1211.81 105.107 1211.81 234.762Z" fill="#FEE9FF"/>
<path d="M1501 560.238C1501 689.893 1395.83 795 1266.09 795C1136.36 795 1031.19 689.893 1031.19 560.238C1031.19 430.582 1136.36 325.476 1266.09 325.476C1395.83 325.476 1501 430.582 1501 560.238Z" fill="#FEE9FF"/>
<path d="M1431.67 234.306C1431.67 316.883 1364.69 383.825 1282.06 383.825C1199.43 383.825 1132.45 316.883 1132.45 234.306C1132.45 151.729 1199.43 84.7878 1282.06 84.7878C1364.69 84.7878 1431.67 151.729 1431.67 234.306Z" fill="#FEE9FF"/>
<path fill-rule="evenodd" clip-rule="evenodd" d="M1132.53 239.425C1135.22 317.625 1138.08 328.202 1070.22 430.641L1473.69 450.38C1416.17 341.806 1420.06 331.56 1430.37 253.995L1132.53 239.425Z" fill="#FEE9FF"/>
<path fill-rule="evenodd" clip-rule="evenodd" d="M1277.61 84.8539C1203.62 87.0528 1195.42 90.136 1094.93 31.7798L1095.53 437.391C1195.85 378.735 1204.06 381.793 1278.06 383.771L1277.61 84.8539Z" fill="#FEE9FF"/>
<path fill-rule="evenodd" clip-rule="evenodd" d="M1373.92 351.667C1255.48 290.517 1243.64 277.193 1196.89 152.431L869.083 443.333C987.516 504.483 999.356 517.807 1046.11 642.569L1373.92 351.667Z" fill="#FEE9FF"/>
<path d="M972.193 1545.45L1022.76 1515.54L1023.38 1574.29L972.193 1545.45Z" stroke="#D8E9E4" stroke-width="4"/>
<path d="M1097.16 1455.14L1128.22 1405.26L1155.88 1457.1L1097.16 1455.14Z" stroke="#FEE9FF" stroke-width="4"/>
<path d="M955.397 1738.26L918.03 1692.92L975.978 1683.23L955.397 1738.26Z" stroke="#FEE9FF" stroke-width="4"/>
</svg>
