<svg width="902" height="164" viewBox="0 0 902 164" fill="none" xmlns="http://www.w3.org/2000/svg">
<circle cx="794" cy="80" r="8" fill="#FEE9FF"/>
<circle cx="818" cy="80" r="8" fill="#FEE9FF"/>
<circle cx="842" cy="80" r="8" fill="#FEE9FF"/>
<circle cx="866" cy="80" r="8" fill="#FEE9FF"/>
<circle cx="890" cy="80" r="8" fill="#FEE9FF"/>
<circle cx="794" cy="104" r="8" fill="#FEE9FF"/>
<circle cx="818" cy="104" r="8" fill="#FEE9FF"/>
<circle cx="842" cy="104" r="8" fill="#FEE9FF"/>
<circle cx="866" cy="104" r="8" fill="#FEE9FF"/>
<circle cx="890" cy="104" r="8" fill="#FEE9FF"/>
<circle cx="794" cy="128" r="8" fill="#FEE9FF"/>
<circle cx="818" cy="128" r="8" fill="#FEE9FF"/>
<circle cx="842" cy="128" r="8" fill="#FEE9FF"/>
<circle cx="866" cy="128" r="8" fill="#FEE9FF"/>
<circle cx="890" cy="128" r="8" fill="#FEE9FF"/>
<circle cx="794" cy="152" r="8" fill="#FEE9FF"/>
<circle cx="818" cy="152" r="8" fill="#FEE9FF"/>
<circle cx="842" cy="152" r="8" fill="#FEE9FF"/>
<circle cx="866" cy="152" r="8" fill="#FEE9FF"/>
<circle cx="890" cy="152" r="8" fill="#FEE9FF"/>
<circle cx="12" cy="12" r="8" fill="#D8E9E4"/>
<circle cx="36" cy="12" r="8" fill="#D8E9E4"/>
<circle cx="60" cy="12" r="8" fill="#D8E9E4"/>
<circle cx="84" cy="12" r="8" fill="#D8E9E4"/>
<circle cx="108" cy="12" r="8" fill="#D8E9E4"/>
<circle cx="12" cy="36" r="8" fill="#D8E9E4"/>
<circle cx="36" cy="36" r="8" fill="#D8E9E4"/>
<circle cx="60" cy="36" r="8" fill="#D8E9E4"/>
<circle cx="84" cy="36" r="8" fill="#D8E9E4"/>
<circle cx="108" cy="36" r="8" fill="#D8E9E4"/>
<circle cx="12" cy="60" r="8" fill="#D8E9E4"/>
<circle cx="36" cy="60" r="8" fill="#D8E9E4"/>
<circle cx="60" cy="60" r="8" fill="#D8E9E4"/>
<circle cx="84" cy="60" r="8" fill="#D8E9E4"/>
<circle cx="108" cy="60" r="8" fill="#D8E9E4"/>
<circle cx="12" cy="84" r="8" fill="#D8E9E4"/>
<circle cx="36" cy="84" r="8" fill="#D8E9E4"/>
<circle cx="60" cy="84" r="8" fill="#D8E9E4"/>
<circle cx="84" cy="84" r="8" fill="#D8E9E4"/>
<circle cx="108" cy="84" r="8" fill="#D8E9E4"/>
</svg>
